inDegrees=yes
name=ik_data_2024_11_07_17_57
DataType=double
version=3
OpenSimVersion=4.5.1
endheader
time	pelvis_tilt	pelvis_list	pelvis_rotation	pelvis_tx	pelvis_ty	pelvis_tz	hip_flexion_r	hip_adduction_r	hip_rotation_r	knee_angle_r	knee_angle_r_beta	ankle_angle_r	subtalar_angle_r	mtp_angle_r	hip_flexion_l	hip_adduction_l	hip_rotation_l	knee_angle_l	knee_angle_l_beta	ankle_angle_l	subtalar_angle_l	mtp_angle_l	lumbar_extension	lumbar_bending	lumbar_rotation	arm_flex_r	arm_add_r	arm_rot_r	elbow_flex_r	pro_sup_r	wrist_flex_r	wrist_dev_r	arm_flex_l	arm_add_l	arm_rot_l	elbow_flex_l	pro_sup_l	wrist_flex_l	wrist_dev_l
10.03889	1.907103676645137	-2.976432385604568	16.95871921716624	0	0.9399999999999999	0	-15.52052379495516	7.09300181512081	11.76585739965484	0.02385337621445363	0.0004163199526591169	-5.015760749196242	0	0	-0.6992586945762491	-3.469220193987069	-11.27500581288169	0.5145165156676952	0.008980007254290271	-5.015760749196242	0	0	0	0	0	0	-6.99051671303917	0	67.35097302685151	46.23008224196805	0	0	0	-6.99051671303917	0	67.35097302685151	46.23008224196805	0	0
10.04175	1.906095417468821	-2.839867644073264	17.31084962085769	0	0.9399999999999999	0	-15.35174666524764	6.98347067017091	11.36180575922748	0.02374263268689823	0.000414387113478002	-5.015711375024366	0	0	-0.7125527353253026	-3.33757173294488	-10.93630594899052	0.5217954624250289	0.00910704884128311	-5.015711375024366	0	0	0	0	0	0	-6.993544827547368	0	67.35656915217395	46.22769390015232	0	0	0	-6.993544827547368	0	67.35656915217395	46.22769390015232	0	0
10.09932	1.902213547150793	-2.770177695375041	17.57155399845642	0	0.9399999999999999	0	-15.36321580502976	6.969943229833243	11.1129974552364	0.02431319595990904	0.0004243453211829961	-5.015669212707133	0	0	-0.7165958818087573	-3.278127850384236	-10.6659609072273	0.5272828697110756	0.009202822165822551	-5.015669212707133	0	0	0	0	0	0	-6.996382134459575	0	67.36168752475879	46.22560316956923	0	0	0	-6.996382134459575	0	67.36168752475879	46.22560316956923	0	0
10.15067	1.880376936692207	-2.775997739564132	17.58713529131237	0	0.9399999999999999	0	-15.29662765690912	6.958333049977361	11.08700415514775	0.02461850568304095	0.00042967398109	-5.015654170204488	0	0	-0.6607351278443655	-3.277156168188063	-10.66465985778279	0.5611420173264308	0.009793775773629285	-5.015654170204488	0	0	0	0	0	0	-6.997382006069994	0	67.36350000936675	46.22485835789159	0	-4.683744391994051e-36	0	-6.997382006069994	0	67.36350000936675	46.22485835789159	0	-4.683744391994051e-36
10.21747	1.834393249252994	-2.70863402523922	17.80870226876675	0	0.9399999999999999	0	-15.20735742478535	6.861887920316182	10.84811687440651	0.02489932204858409	0.0004345751512622118	-5.01554980419167	0	0	-0.6582929039335851	-3.200416819885125	-10.42553925188303	0.5155082466649765	0.008997316225486917	-5.01554980419167	0	0	0	0	0	0	-7.003700731392445	0	67.37521226647027	46.21982802721029	0	0	0	-7.003700731392445	0	67.37521226647027	46.21982802721029	0	0
10.22203	1.778095210162661	-2.779998310628504	17.54883662849133	0	0.9399999999999999	0	-15.15072413610316	6.806317866975991	11.12607859528337	0.02534525370146041	0.0004423581268437641	-5.015514780400442	0	0	-0.603570820024292	-3.246350655233761	-10.67306648270759	0.5112181008937933	0.008922439056389259	-5.015514780400442	0	0	0	0	0	0	-7.005904165851933	0	67.37926058095996	46.21812048822031	0	0	0	-7.005904165851933	0	67.37926058095996	46.21812048822031	0	0
10.27685	1.758513788082892	-2.843729245819019	17.31411470535954	0	0.9399999999999999	0	-15.06956810347665	6.700609844424924	11.34244386986463	0.02570841940951966	0.0004486965641797345	-5.015482907047024	0	0	-0.5800746159806759	-3.297530168129502	-10.90935279855622	0.5111872580645211	0.008921900747467831	-5.015482907047024	0	0	0	0	0	0	-7.007864775788932	0	67.38288460147864	46.21657543501905	0	0	0	-7.007864775788932	0	67.38288460147864	46.21657543501905	0	0
10.33948	1.736303855058863	-2.867498696030388	17.21794085344881	0	0.9399999999999999	0	-15.06338224175276	6.643047369466976	11.44856033856636	0.02625680003720487	0.0004582676116869947	-5.015459942811858	0	0	-0.5613634782167986	-3.314601416971537	-11.00900180423312	0.5126988127038405	0.00894828235274775	-5.015459942811858	0	0	0	0	0	0	-7.00927772970689	0	67.38549279269144	46.21546379300808	0	0	0	-7.00927772970689	0	67.38549279269144	46.21546379300808	0	0
10.39529	1.71011324973949	-2.887394945644131	17.16148477425684	0	0.9399999999999999	0	-14.96830318890622	6.549790526287482	11.49907464468314	0.02658242582286511	0.0004639508537761591	-5.015436309966898	0	0	-0.5265047727501749	-3.326877507450876	-11.06189514721834	0.5188446699409501	0.009055547796892832	-5.015436309966898	0	0	0	0	0	0	-7.010754809070128	0	67.38821270452013	46.21431281609463	0	0	0	-7.010754809070128	0	67.38821270452013	46.21431281609463	0	0
10.40339	1.708960382100412	-2.914684687418939	17.05840381824827	0	0.9399999999999999	0	-14.87059805618261	6.431832932619166	11.58924031613667	0.02711610763077315	0.0004732653584821504	-5.015411223221433	0	0	-0.5255745125024557	-3.351505339988268	-11.16381312700192	0.5169791251089606	0.009022987897231051	-5.015411223221433	0	0	0	0	0	0	-7.01230138788642	0	67.39107100802636	46.21309533033348	0	0	0	-7.01230138788642	0	67.39107100802636	46.21309533033348	0	0
10.4513	1.628313284500796	-3.072908156295324	16.41426050818103	0	0.9399999999999999	0	-14.72574338250183	6.318795441970781	12.23618250132009	0.02761515170231219	0.0004819753206430647	-5.015352250314631	0	0	-0.4274814910135926	-3.472447267433827	-11.81978084787159	0.5202216710970342	0.009079581000870269	-5.015352250314631	0	0	0	0	0	0	-7.015969152831753	0	67.39784249877802	46.21022211163185	0	0	0	-7.015969152831753	0	67.39784249877802	46.21022211163185	0	0
10.51891	1.595397731330765	-3.173553110429726	16.04308821310582	0	0.9399999999999999	0	-14.65361718601662	6.177331524815594	12.60389132154899	0.02834780653306837	0.0004947625597204018	-5.015315403055602	0	0	-0.3998908570625038	-3.557450852468811	-12.17526226839779	0.5142126431945661	0.00897470367912799	-5.015315403055602	0	0	0	0	0	0	-7.018273079553987	0	67.4020899025105	46.20842444863901	0	0	0	-7.018273079553987	0	67.4020899025105	46.20842444863901	0	0
10.58467	1.544877548419721	-3.246824355330867	15.75279841663806	0	0.9399999999999999	0	-14.53936634352122	6.0680859496149	12.88830848857386	0.0285975758909649	0.0004991218573862883	-5.015281332505751	0	0	-0.3529635839147501	-3.610999768829187	-12.46417029313019	0.5124407701783287	0.008943778661067405	-5.015281332505751	0	0	0	0	0	0	-7.020406347320595	0	67.40602151217611	46.20676148307931	0	0	0	-7.020406347320595	0	67.40602151217611	46.20676148307931	0	0
10.59555	1.568180889829079	-3.285597187541346	15.60451848994019	0	0.9399999999999999	0	-14.41241742189599	5.984230216651634	13.02925076955866	0.02914031827904294	0.0005085944990483869	-5.015255246885515	0	0	-0.3766328114464754	-3.654511340214663	-12.61404656114404	0.5143454919376653	0.008977022327102209	-5.015255246885515	0	0	0	0	0	0	-7.02200575978144	0	67.40898451782986	46.20549571795069	0	0	0	-7.02200575978144	0	67.40898451782986	46.20549571795069	0	0
10.635	1.546396733436008	-3.277074796361882	15.56070899174449	0	0.9399999999999999	0	-14.35289860190192	5.871920547926703	13.06501590598706	0.02960520734274657	0.0005167083438665289	-5.015084844179563	0	0	-0.3582579805109179	-3.642421984070592	-12.67002985749177	0.5236586976496559	0.009139568430691986	-5.015084844179563	0	0	0	0	0	0	-7.032268670092638	0	67.42811275839576	46.19724987836426	0	0	0	-7.032268670092638	0	67.42811275839576	46.19724987836426	0	0
